<svg xmlns="http://www.w3.org/2000/svg" width="29.37" height="30.973" viewBox="0 0 29.37 30.973">
  <path id="Op_component_1" data-name="Op component 1" d="M99.345,36.142c1.694-.042,3.388.674,3.388-.211,0-.843-2.795-1.138-3.388-1.264v-.084a76.722,76.722,0,0,1,21.427-3.245l-4.235,5.394c-2.753,3.5-10.544,13.316-10.544,17.488,0,1.18,1.228,1.77,2.287,1.77,1.313,0,3.007-2.486,3.769-3.456.508-.632,1.779-2.149,1.779-2.992,0-.632-.55-.759-.974-.59l-.085-.084,9.951-15c.593-.927,1.948-2.486,1.567-3.5-1.1-2.908-.889-4.214-3.515-4.8a29.592,29.592,0,0,0-6.394-.548c-5.251,0-11.01.59-15.838,2.781-2.753,1.222-2.668,2.065-3.176,4.8a17.164,17.164,0,0,0-.381,2.444c0,1.138.932,1.138,1.906,1.138Z" transform="translate(-94.983 -25.017)" fill="#636363"/>
</svg>
