<svg xmlns="http://www.w3.org/2000/svg" xmlns:xlink="http://www.w3.org/1999/xlink" width="92" height="92" viewBox="0 0 92 92">
  <defs>
    <filter id="Rectangle_2" x="0" y="0" width="92" height="92" filterUnits="userSpaceOnUse">
      <feOffset input="SourceAlpha"/>
      <feGaussianBlur stdDeviation="10" result="blur"/>
      <feFlood flood-color="#656565" flood-opacity="0.2"/>
      <feComposite operator="in" in2="blur"/>
      <feComposite in="SourceGraphic"/>
    </filter>
  </defs>
  <g id="Rigth_side_arrow" data-name="Rigth side arrow" transform="translate(-1202 -319)">
    <g transform="matrix(1, 0, 0, 1, 1202, 319)" filter="url(#Rectangle_2)">
      <rect id="Rectangle_2-2" data-name="Rectangle 2" width="32" height="32" transform="translate(30 30)" fill="#fff"/>
    </g>
    <path id="Shape_1" data-name="Shape 1" d="M1255.776,365.439l-5.056-5.209a.752.752,0,0,0-1.084,0l-.459.473a.8.8,0,0,0-.224.558.812.812,0,0,0,.224.565l2.95,3.045h-9.371a.759.759,0,0,0-.756.776v.669a.79.79,0,0,0,.756.811h9.4l-2.983,3.063a.8.8,0,0,0,0,1.109l.459.471a.753.753,0,0,0,1.084,0l5.056-5.209a.814.814,0,0,0,0-1.121Z" transform="translate(-0.526 -0.524)" fill="#2f2f2f"/>
  </g>
</svg>
