<svg xmlns="http://www.w3.org/2000/svg" xmlns:xlink="http://www.w3.org/1999/xlink" width="132.998" height="32" viewBox="0 0 132.998 32">
  <defs>
    <linearGradient id="linear-gradient" x1="0.521" y1="1.55" x2="0.479" y2="-0.55" gradientUnits="objectBoundingBox">
      <stop offset="0" stop-color="#08aeea"/>
      <stop offset="1" stop-color="#2af598"/>
    </linearGradient>
  </defs>
  <g id="Tourism" transform="translate(-94.983 -25.016)" fill="url(#linear-gradient)">
    <path d="M 108.1132125854492 55.00016021728516 C 108.0734710693359 54.9925422668457 108.0367736816406 54.98284149169922 108.0044708251953 54.972412109375 C 108.0868301391602 54.13642883300781 108.6774978637695 51.98816299438477 111.7861328125 47.17372512817383 C 112.7639389038086 45.65937042236328 113.8214874267578 44.14337158203125 114.8167877197266 42.76617431640625 L 111.0852203369141 48.578125 L 110.2293472290039 49.91116333007812 L 111.3310241699219 51.04952621459961 L 111.3388595581055 51.0576286315918 C 111.15380859375 51.32476043701172 110.9056777954102 51.6611328125 110.5743865966797 52.08461761474609 L 110.4695892333984 52.21879959106445 L 110.4634246826172 52.22672653198242 L 110.4573516845703 52.23470687866211 C 110.3492965698242 52.37650680541992 110.22900390625 52.54043579101562 110.1016387939453 52.71396255493164 C 109.7588958740234 53.18096160888672 109.3323287963867 53.76218032836914 108.8915710449219 54.25989151000977 C 108.4938278198242 54.70903015136719 108.2399139404297 54.91322708129883 108.1132125854492 55.00016021728516 Z M 146.4714050292969 54.1888542175293 C 146.3184204101562 54.1888542175293 146.25341796875 54.14452743530273 146.1869812011719 54.062744140625 C 146.0530090332031 53.89780044555664 145.9730072021484 53.61852645874023 145.9730072021484 53.31568908691406 C 145.9730072021484 52.57887268066406 146.2031097412109 51.81704330444336 146.4901428222656 51.02141952514648 C 146.7290954589844 52.16440963745117 147.5548095703125 52.96486282348633 148.7353057861328 53.19866943359375 C 147.4257202148438 54.07669448852539 146.7369689941406 54.1888542175293 146.4714050292969 54.1888542175293 Z M 217.5552520751953 53.83473968505859 C 217.4774017333984 53.76150894165039 217.3619079589844 53.55284118652344 217.3619079589844 53.31568908691406 C 217.3619079589844 53.01885223388672 217.4571075439453 52.3221435546875 218.0946655273438 50.99131011962891 C 218.1462554931641 50.88360977172852 218.1996307373047 50.77540969848633 218.2544250488281 50.66702651977539 C 218.3892059326172 51.1515998840332 218.6447601318359 51.61598968505859 218.9994049072266 52.00049209594727 C 219.2678680419922 52.29155731201172 219.5748901367188 52.51960372924805 219.9056396484375 52.67779922485352 C 218.3823852539062 53.62953186035156 217.7268981933594 53.80342864990234 217.5552520751953 53.83473968505859 Z M 173.4840087890625 53.79739761352539 C 173.3253326416016 53.79739761352539 172.9038543701172 53.79739761352539 172.4507141113281 53.02627182006836 C 172.1847991943359 52.57377243041992 171.9902954101562 51.97800064086914 171.8995971679688 51.3673095703125 C 172.0155792236328 51.59524536132812 172.15576171875 51.80863189697266 172.3200988769531 52.00714492797852 C 172.957275390625 52.77682495117188 173.8787841796875 53.23059463500977 175.0656280517578 53.36091995239258 C 174.4735260009766 53.64743041992188 173.9392242431641 53.79739761352539 173.4840087890625 53.79739761352539 Z M 162.0905151367188 53.49250793457031 C 161.5287933349609 53.49241638183594 161.2154083251953 52.6929817199707 161.2154083251953 52.140380859375 C 161.2154083251953 51.57648086547852 161.3412017822266 51.02569198608398 161.5546264648438 50.48591995239258 C 161.7703857421875 51.52987289428711 162.5256500244141 52.41081619262695 163.5143127441406 52.8310546875 C 162.5063018798828 53.46292877197266 162.0958862304688 53.49223709106445 162.0905151367188 53.49250793457031 Z M 207.8925476074219 53.21098709106445 C 207.9335174560547 52.98515319824219 208.0673828125 52.53105926513672 208.4842529296875 51.68898010253906 C 208.8406524658203 50.96904754638672 209.3451385498047 50.07706451416016 210.0601348876953 48.90741729736328 L 210.5023803710938 49.35947036743164 L 210.5869903564453 49.44594573974609 L 211.2815399169922 50.15586090087891 L 210.3052520751953 51.0775260925293 L 210.2903900146484 51.0915641784668 L 210.2758026123047 51.10590744018555 C 210.1310577392578 51.24825286865234 209.9830474853516 51.3992919921875 209.8263092041016 51.55920028686523 C 209.4137725830078 51.98016357421875 208.9461517333984 52.45727157592773 208.4896697998047 52.8181266784668 C 208.2142944335938 53.03582382202148 208.0179901123047 53.15075302124023 207.8925476074219 53.21098709106445 Z M 137.9591979980469 52.96985244750977 C 137.6834716796875 52.96985244750977 137.3948669433594 52.69690322875977 137.1679077148438 52.29231262207031 C 137.4832153320312 52.44939422607422 137.8280487060547 52.52899932861328 138.1716003417969 52.52899932861328 C 138.4482574462891 52.52899932861328 138.7520141601562 52.47963714599609 139.0738677978516 52.39079284667969 C 138.3034057617188 52.96237564086914 137.9745635986328 52.96985244750977 137.9591979980469 52.96985244750977 Z M 199.5240325927734 52.93069076538086 C 199.4197540283203 52.75450897216797 199.2876739501953 52.46683120727539 199.1665344238281 52.03241729736328 C 198.9750671386719 51.3458137512207 198.9033660888672 50.63174819946289 198.8994750976562 50.17646026611328 C 199.2451171875 50.84860229492188 199.8946685791016 51.39587020874023 200.7166290283203 51.47496795654297 C 200.3999481201172 51.86000823974609 200.0899353027344 52.24413299560547 199.7882843017578 52.62651062011719 C 199.6810913085938 52.75627899169922 199.5942993164062 52.85528945922852 199.5240325927734 52.93069076538086 Z M 183.42919921875 52.55250549316406 C 182.8905792236328 52.13568878173828 182.443359375 51.60795974731445 182.1631927490234 50.96456146240234 L 181.9799652099609 50.54378890991211 L 182.3915100097656 50.56674575805664 C 182.9116516113281 50.59577178955078 183.4197998046875 51.23709869384766 184.0710296630859 52.15036773681641 L 183.42919921875 52.55250549316406 Z M 128.4336853027344 50.140380859375 L 128.4279479980469 50.140380859375 L 128.2414703369141 49.70254516601562 C 127.9842376708984 49.09856414794922 127.8929138183594 48.82358169555664 127.8929138183594 48.48337936401367 C 127.8929138183594 47.3943977355957 128.7515258789062 45.79930877685547 129.1641540527344 45.03274536132812 C 129.5240783691406 44.36408996582031 129.8391876220703 43.77865600585938 129.688720703125 43.02765274047852 L 130.7425384521484 43.31601715087891 C 130.7459106445312 43.31694412231445 130.7492218017578 43.31786346435547 130.7524261474609 43.31877136230469 C 130.7720794677734 43.42224884033203 130.7949981689453 43.61567687988281 130.7949981689453 43.95512771606445 C 130.7949981689453 45.20583724975586 130.2695159912109 46.29618072509766 129.6042175292969 47.67661666870117 C 129.51513671875 47.86145401000977 129.4253997802734 48.04765319824219 129.336181640625 48.23594665527344 L 128.4336853027344 50.140380859375 Z M 146.7146148681641 48.69679260253906 L 146.2992401123047 48.26767349243164 L 146.2146453857422 48.18027114868164 L 145.8284759521484 47.78131866455078 L 148.8026885986328 45.03241729736328 L 148.8052215576172 45.03007125854492 L 148.8077545166016 45.0277099609375 C 148.8666381835938 44.97289276123047 148.9360046386719 44.90731430053711 149.0155487060547 44.83157348632812 C 148.8330688476562 45.06245040893555 148.6522674560547 45.29961776733398 148.4762268066406 45.54088973999023 C 147.6197357177734 46.71473693847656 147.0355682373047 47.75967407226562 146.7146148681641 48.69679260253906 Z M 173.0341644287109 46.55098724365234 C 173.6061248779297 45.53242874145508 174.3572540283203 44.55160903930664 175.2063140869141 43.73087310791016 C 175.9449768066406 43.01684188842773 176.5879364013672 42.58507919311523 177.0437164306641 42.35161972045898 C 176.7545776367188 42.79607009887695 176.3127899169922 43.37765502929688 175.6530151367188 44.09477996826172 C 174.7754821777344 45.04862594604492 173.788330078125 45.94271850585938 173.0341644287109 46.55098724365234 Z M 120.8337020874023 46.07814788818359 C 121.3330535888672 45.1690673828125 122.117301940918 44.3185920715332 123.2358932495117 43.43572616577148 L 123.2589111328125 43.41756439208984 L 123.281364440918 43.39872741699219 C 124.5626220703125 42.32507705688477 126.2114791870117 41.47818374633789 127.8400573730469 41.01684951782227 L 127.667121887207 41.11377716064453 L 127.636474609375 41.09794616699219 L 126.8957061767578 41.54613494873047 L 126.0358200073242 42.02807235717773 L 126.071662902832 42.03787994384766 C 125.9955139160156 42.08256530761719 125.9180908203125 42.12790298461914 125.8395309448242 42.17390823364258 C 124.4217300415039 43.00425338745117 122.8147659301758 43.94538116455078 121.6032257080078 45.14921569824219 L 121.5910949707031 45.1612548828125 L 121.5791854858398 45.17348861694336 C 121.3136749267578 45.44647598266602 121.0638046264648 45.7512321472168 120.8337020874023 46.07814788818359 Z M 191.1155853271484 45.86832809448242 C 190.9854888916016 44.9345588684082 190.8189544677734 43.79171371459961 190.5725250244141 42.35443496704102 L 190.4009857177734 41.35391235351562 L 190.5088653564453 41.25221633911133 L 190.5555572509766 40.45938110351562 C 190.5709991455078 40.19709777832031 190.6277313232422 39.9796028137207 190.6953582763672 39.81867980957031 C 190.783935546875 40.4227409362793 190.9124908447266 40.98939895629883 191.0376739501953 41.54114532470703 C 191.2384033203125 42.42583465576172 191.4280090332031 43.26145553588867 191.4280090332031 44.17269134521484 C 191.4280090332031 44.76789093017578 191.3144226074219 45.33384323120117 191.1155853271484 45.86832809448242 Z M 220.3411254882812 45.2938346862793 L 219.9327545166016 44.87194442749023 L 219.84814453125 44.7845458984375 L 219.5720062255859 44.49924850463867 L 222.6771545410156 41.98310852050781 L 222.6836700439453 41.97781753540039 L 222.6901550292969 41.97247314453125 C 222.7394409179688 41.93183898925781 222.7866973876953 41.89320373535156 222.8321075439453 41.85638809204102 C 222.8887634277344 41.94806289672852 222.9483947753906 42.04759979248047 222.9949188232422 42.13398361206055 C 222.8646697998047 42.34333038330078 222.6169891357422 42.652587890625 222.2551116943359 43.05749130249023 L 222.2507629394531 43.06234359741211 L 222.2464599609375 43.06723403930664 C 221.4797210693359 43.93643951416016 220.8527679443359 44.66529846191406 220.3411254882812 45.2938346862793 Z M 211.7483520507812 44.60511016845703 C 211.5490417480469 43.97887420654297 211.0898895263672 43.46822357177734 210.4986724853516 43.20150375366211 C 212.3787689208984 41.65542984008789 213.3925628662109 41.10979843139648 213.8543243408203 40.91838836669922 C 213.8149871826172 41.09475326538086 213.6798248291016 41.52516555786133 213.2164001464844 42.33779907226562 C 212.8001708984375 43.06766128540039 212.2560272216797 43.86938095092773 211.7483520507812 44.60511016845703 Z M 139.2909851074219 44.28659820556641 C 140.0432281494141 43.32855606079102 140.8544311523438 42.55074310302734 141.5704803466797 42.03500366210938 C 141.5267181396484 42.08620071411133 141.4841461181641 42.13603210449219 141.4426727294922 42.1845817565918 C 140.5862579345703 43.18720626831055 140.3002014160156 43.52204132080078 139.2909851074219 44.28659820556641 Z M 157.2587585449219 44.09942626953125 L 157.1186370849609 44.08565521240234 C 157.2415161132812 43.68905258178711 157.4796447753906 43.24527359008789 157.8134155273438 42.79027938842773 L 161.1062774658203 42.32187271118164 C 161.9874267578125 42.19652557373047 162.7906036376953 42.072998046875 163.4992370605469 41.96401596069336 C 164.6662902832031 41.78453063964844 165.7015838623047 41.62530899047852 166.3567810058594 41.575927734375 C 166.4804992675781 41.80815887451172 166.5396575927734 42.00014877319336 166.56982421875 42.184326171875 C 166.5463409423828 42.44989776611328 166.3927001953125 42.63169860839844 165.5641479492188 43.33445358276367 L 165.5009307861328 43.38809204101562 L 165.4843444824219 43.40216445922852 L 165.4680938720703 43.41658020019531 C 165.3116760253906 43.55532455444336 165.1526947021484 43.70011138916016 164.9927062988281 43.85049438476562 L 164.5485534667969 43.39165496826172 L 164.4639282226562 43.30423736572266 L 163.6810760498047 42.4954719543457 L 162.58349609375 42.74501800537109 L 158.1788940429688 43.74645233154297 L 157.3622894287109 43.93212509155273 L 157.2587585449219 44.09942626953125 Z M 180.3442535400391 37.11055374145508 C 180.4250030517578 36.94280242919922 180.5728302001953 36.74441909790039 180.7966003417969 36.55192565917969 C 180.8700866699219 36.48870849609375 180.9453735351562 36.43153762817383 181.0209655761719 36.38026428222656 C 180.9564208984375 36.48696899414062 180.8818817138672 36.59339904785156 180.7969360351562 36.69641876220703 C 180.6431884765625 36.88288116455078 180.4863128662109 37.01940155029297 180.3442535400391 37.11055374145508 Z M 97.08367919921875 34.54999542236328 C 97.12496185302734 34.30930328369141 97.17267608642578 34.06058502197266 97.21392822265625 33.84552764892578 C 97.25768280029297 33.61743927001953 97.29901885986328 33.40188217163086 97.33419799804688 33.19708251953125 C 97.37760925292969 32.9553108215332 97.41680908203125 32.72757339477539 97.45380401611328 32.51243591308594 C 97.60794830322266 31.61625480651855 97.71932983398438 30.9687442779541 97.91014862060547 30.66401672363281 C 98.017333984375 30.49281692504883 98.28569793701172 30.20749092102051 99.37387847900391 29.70839881896973 L 99.38162231445312 29.70485305786133 L 99.38932800292969 29.70123481750488 C 103.2414398193359 27.89461708068848 108.1440734863281 27.01639938354492 114.3774032592773 27.01639938354492 C 116.2137145996094 27.01639938354492 118.3560256958008 27.07758140563965 120.3220748901367 27.53141784667969 C 121.0522613525391 27.70108985900879 121.1851501464844 27.87463569641113 121.2288208007812 27.93167304992676 C 121.4206924438477 28.18225479125977 121.6091690063477 28.78678131103516 121.8273849487305 29.48678207397461 C 121.8316650390625 29.50049591064453 121.8359603881836 29.51428413391113 121.8402709960938 29.52809906005859 L 120.7361679077148 29.54783630371094 C 112.8496551513672 29.68878173828125 105.4476013183594 30.84841728210449 98.73560333251953 32.99454498291016 L 97.34471130371094 33.43927383422852 L 97.34471130371094 34.54545211791992 L 97.08367919921875 34.54999542236328 Z" stroke="none"/>
    <path d="M 108.2799224853516 57.01639938354492 C 107.2206344604492 57.01639938354492 105.9929809570312 56.40639877319336 105.9929809570312 55.18745803833008 C 105.9929809570312 50.87769317626953 113.7852172851562 40.73322296142578 116.5374526977539 37.11993026733398 L 120.7719268798828 31.54745864868164 C 113.4881591796875 31.67769432067871 106.2891006469727 32.67910385131836 99.34474945068359 34.89957427978516 L 99.34474945068359 34.98698806762695 C 99.93780517578125 35.11710357666016 102.7322769165039 35.42204666137695 102.7322769165039 36.29333877563477 C 102.7322769165039 36.91263580322266 101.9520645141602 36.7712287902832 100.9214553833008 36.62992858886719 C 100.4336929321289 36.56298828125 99.88912200927734 36.49697875976562 99.34474945068359 36.51086807250977 L 96.88863372802734 36.55369186401367 C 95.91474914550781 36.55369186401367 94.98333740234375 36.55369186401367 94.98333740234375 35.37839889526367 C 94.98333740234375 34.68193054199219 95.23709869384766 33.59404754638672 95.36404418945312 32.85298919677734 C 95.87251281738281 30.0235767364502 95.7869873046875 29.15322303771973 98.5401611328125 27.89051628112793 C 103.3676910400391 25.62639999389648 109.1267471313477 25.01639938354492 114.3774566650391 25.01639938354492 C 116.4951019287109 25.01639938354492 118.6974563598633 25.10381126403809 120.7719268798828 25.58263397216797 C 123.397216796875 26.19263458251953 123.1856918334961 27.54181098937988 124.2863922119141 30.54604721069336 C 124.6680450439453 31.59028244018555 123.312629699707 33.20169448852539 122.7194519042969 34.15933990478516 L 112.7681579589844 49.65863418579102 L 112.8528671264648 49.74604797363281 C 113.2767715454102 49.57122421264648 113.8274612426758 49.7024040222168 113.8274536132812 50.35510635375977 C 113.8274536132812 51.22546005249023 112.5567474365234 52.79310607910156 112.0481567382812 53.44675064086914 C 111.2859268188477 54.44734191894531 109.5921630859375 57.01639938354492 108.2799224853516 57.01639938354492 Z M 146.4714508056641 56.18886947631836 C 144.9045104980469 56.18886947631836 143.9729766845703 54.83969497680664 143.9729766845703 53.31569290161133 C 143.9729766845703 52.01016235351562 144.4382781982422 50.790283203125 144.8621673583984 49.65863418579102 L 144.7775726318359 49.57122421264648 C 143.1260375976562 51.05157470703125 140.2883911132812 54.96981048583984 137.9592132568359 54.96981048583984 C 135.8847503662109 54.96981048583984 134.7416839599609 52.53181076049805 134.7416839599609 50.6600456237793 C 134.7416839599609 50.42087173461914 134.7519226074219 50.18157577514648 134.7715759277344 49.94204711914062 C 133.2225189208984 51.47393035888672 131.5367431640625 52.14039993286133 129.0689849853516 52.14039993286133 C 127.2906341552734 54.01216506958008 125.215217590332 55.40592956542969 122.5475692749023 55.40592956542969 C 120.3453369140625 55.40592956542969 118.313102722168 53.14181137084961 118.1429824829102 49.1798095703125 C 118.0583953857422 45.91427993774414 119.6253356933594 43.73757553100586 121.9967498779297 41.86581039428711 C 124.28369140625 39.94945907592773 127.3328628540039 38.77416229248047 129.9159240722656 38.64392852783203 C 130.8477020263672 38.60028457641602 132.2451019287109 39.03546905517578 132.2451019287109 40.21169281005859 C 132.2451019287109 40.86439895629883 131.7366333007812 41.12569427490234 131.2704010009766 41.38698577880859 C 132.5412139892578 41.73463439941406 132.7949829101562 42.64875411987305 132.7949829101562 43.95510482788086 C 132.7949829101562 45.87051773071289 131.9481658935547 47.39451599121094 131.1434478759766 49.09239959716797 C 133.0075988769531 49.44114685058594 134.1927490234375 47.7869873046875 135.5058135986328 46.78545761108398 L 135.5199279785156 46.84651565551758 C 136.6294555664062 44.02286911010742 138.7409820556641 41.52733993530273 140.627685546875 40.25439834594727 C 141.2208709716797 39.86298751831055 141.770751953125 39.77557754516602 142.4907531738281 39.77557754516602 C 143.0838317871094 39.77557754516602 145.2428741455078 39.38406753540039 145.0736846923828 40.6895751953125 C 144.9891052246094 41.38698577880859 143.8460388183594 42.60593032836914 143.3799285888672 42.99734115600586 C 142.0676879882812 44.52133941650391 141.81298828125 44.91286849975586 140.1614532470703 46.13275146484375 C 138.8493347167969 47.08957672119141 137.832275390625 48.04734039306641 137.832275390625 49.87628173828125 C 137.832275390625 50.09381103515625 137.8746337890625 50.52898788452148 138.1715698242188 50.52898788452148 C 138.9339294433594 50.52898788452148 141.2631072998047 49.26628112792969 143.2529907226562 47.43828201293945 L 147.4452209472656 43.56369400024414 C 148.3343963623047 42.73616409301758 152.4842834472656 38.60028076171875 153.5435791015625 38.60028076171875 C 153.8820495605469 38.60028076171875 154.3481597900391 38.73040008544922 154.5174560546875 40.9945182800293 C 154.6020355224609 42.03969192504883 153.4580383300781 43.04110336303711 152.7813415527344 43.65110397338867 C 151.4259185791016 44.91286849975586 148.4189910888672 48.3522834777832 148.4189910888672 50.31145858764648 C 148.4189910888672 51.0078125 148.8006286621094 51.26910400390625 149.478271484375 51.26910400390625 C 150.3916931152344 51.26910400390625 151.9599304199219 50.2873420715332 153.377685546875 49.24722290039062 L 153.3716888427734 49.1798095703125 C 154.4723968505859 48.26581192016602 155.361572265625 47.17698669433594 156.1661529541016 46.00169372558594 C 155.2769775390625 45.91427993774414 155.0232238769531 45.5665168762207 155.0232238769531 44.65157699584961 C 155.0232238769531 41.51710510253906 159.34228515625 38.38263320922852 160.3583984375 38.38263320922852 C 160.7822723388672 38.38263320922852 161.1207427978516 38.73040008544922 161.1207427978516 39.12275314331055 C 161.1207427978516 39.55792999267578 160.9938049316406 39.94945907592773 160.8246307373047 40.34181213378906 C 164.8053283691406 39.77557754516602 167.134521484375 39.25298690795898 167.5574493408203 39.77557754516602 C 168.19287109375 40.60310363769531 168.4889831542969 41.29957580566406 168.5735778808594 42.08333969116211 C 168.5735778808594 43.43345642089844 167.7689819335938 44.08628082275391 166.7952117919922 44.91286849975586 C 165.5675659179688 46.00169372558594 163.4921569824219 48.13463592529297 163.4921569824219 49.87628173828125 C 163.4921569824219 50.57275390625 164.169921875 51.09522247314453 164.8053436279297 51.09522247314453 C 166.5287475585938 51.09522247314453 169.0111083984375 48.55992889404297 170.4568634033203 47.36557769775391 C 171.9248657226562 43.37475204467773 175.6640472412109 40.12428283691406 177.6771087646484 40.12428283691406 C 178.3961639404297 40.12428283691406 179.5400390625 40.38545989990234 179.5400390625 41.34322357177734 C 179.5400390625 43.51992797851562 175.3479309082031 47.39451599121094 173.5694580078125 48.65722274780273 C 173.2301635742188 50.4425163269043 173.8655700683594 51.4002799987793 175.8132171630859 51.4002799987793 C 176.6752166748047 51.4002799987793 177.5309906005859 51.05992889404297 178.3540496826172 50.56910705566406 C 178.3533325195312 50.55569458007812 178.3529815673828 50.54228210449219 178.3529815673828 50.52898788452148 C 178.3529815673828 49.96369171142578 179.0307464599609 49.35369491577148 179.3690948486328 49.00592803955078 L 188.5589904785156 40.34181213378906 C 188.6435699462891 38.90522384643555 189.4481658935547 37.51145935058594 190.971923828125 37.51145935058594 C 192.2427520751953 37.51145935058594 192.4965209960938 37.90381240844727 192.6234588623047 39.12275314331055 C 192.79345703125 40.7769889831543 193.4280395507812 42.25722122192383 193.4280395507812 44.17275238037109 C 193.4280395507812 47.74322128295898 190.6334533691406 50.39886856079102 187.9235687255859 52.09663391113281 C 190.6335906982422 52.57556915283203 192.2849731445312 51.26910781860352 194.3603973388672 49.65863418579102 L 196.9011077880859 47.65581130981445 L 197.1113433837891 48.47792816162109 C 198.0337982177734 44.50779724121094 201.7485046386719 40.08049011230469 203.9706268310547 40.38545989990234 C 204.6060485839844 40.47192764282227 205.8767547607422 40.47192764282227 205.8767547607422 41.38698577880859 C 205.8767547607422 42.25722122192383 204.6906280517578 43.56369400024414 204.1829833984375 44.17275238037109 C 203.4207458496094 45.08769226074219 202.48828125 45.87051773071289 201.8538055419922 46.8292236328125 C 201.3875732421875 47.48192977905273 200.6253356933594 48.17839813232422 200.6253356933594 49.09239959716797 C 200.6253356933594 49.1798095703125 200.7521667480469 49.4847526550293 200.9222717285156 49.4847526550293 C 201.1338043212891 49.4847526550293 201.6414489746094 48.91851806640625 201.7692260742188 48.78839874267578 C 203.8436889648438 46.56792831420898 211.3812255859375 38.81781005859375 214.13427734375 38.81781005859375 C 215.27734375 38.81781005859375 215.8703918457031 39.68910598754883 215.8703918457031 40.82063293457031 C 215.8703918457031 42.73616409301758 212.8634490966797 46.26298904418945 211.9320373535156 47.96086883544922 L 212.0166320800781 48.04734039306641 L 221.4180450439453 40.42922210693359 C 221.8409881591797 40.08051681518555 222.8994598388672 39.21016311645508 223.4079284667969 39.21016311645508 C 223.7462768554688 39.21016311645508 224.170166015625 40.25439834594727 224.2971038818359 40.42922210693359 C 224.5941619873047 40.90804672241211 225.0594482421875 41.56087112426758 225.0594482421875 42.17075347900391 C 225.0594482421875 42.91086959838867 224.2125091552734 43.86863327026367 223.7462768554688 44.39028167724609 C 220.4433441162109 48.13463592529297 220.189453125 48.83110427856445 220.147216796875 49.83251571655273 C 220.1048736572266 50.3551139831543 220.6559600830078 51.05156707763672 221.163330078125 50.92134094238281 C 222.0525207519531 50.70381164550781 222.5187530517578 50.70381164550781 227.7269897460938 47.0467529296875 L 227.981689453125 49.09239959716797 C 225.9908599853516 50.70381164550781 219.8934478759766 55.84110641479492 217.5219268798828 55.84110641479492 C 216.2510986328125 55.84110641479492 215.3619232177734 54.57839965820312 215.3619232177734 53.31569290161133 C 215.3619232177734 51.13898849487305 217.4373321533203 48.04734039306641 218.4956970214844 46.26298904418945 L 218.4111022949219 46.17557525634766 L 211.6781616210938 52.53181076049805 C 210.7043914794922 53.48957443237305 209.1798095703125 55.27487182617188 207.7398071289062 55.27487182617188 C 206.7236938476562 55.27487182617188 205.9190979003906 54.49098587036133 205.8767547607422 53.44675064086914 C 205.8345184326172 52.18404769897461 206.8506317138672 50.18122100830078 209.6027526855469 45.87051773071289 C 209.6874542236328 45.7840461730957 209.8566284179688 45.43534088134766 209.8566284179688 45.30522155761719 C 209.8566284179688 45.13039779663086 209.7296905517578 45.00028228759766 209.5605163574219 45.00028228759766 C 209.1375732421875 45.00028228759766 208.2060394287109 46.04534149169922 207.9089813232422 46.35039901733398 C 205.7067413330078 48.74463653564453 203.3361663818359 51.35651779174805 201.3453369140625 53.88192749023438 C 200.8800354003906 54.44734191894531 200.286865234375 55.10098648071289 199.5246276855469 55.10098648071289 C 197.491455078125 55.10098648071289 196.8993377685547 51.70522308349609 196.8993377685547 50.13757705688477 C 196.900634765625 50.00051879882812 196.9066314697266 49.86228179931641 196.9169769287109 49.72228240966797 C 194.2772216796875 52.35593032836914 189.9534606933594 55.91976547241211 186.7374572753906 55.75369262695312 C 184.2056884765625 55.63745880126953 181.4374542236328 54.30757522583008 180.3294525146484 51.76310348510742 C 178.3582763671875 53.78475189208984 175.7905120849609 55.79734039306641 173.4840393066406 55.79734039306641 C 170.9855651855469 55.79734039306641 169.8426361083984 52.83686828613281 169.8426361083984 50.61639785766602 C 169.8426361083984 50.41416549682617 169.8504028320312 50.21157455444336 169.8652191162109 50.01004791259766 C 167.7395782470703 52.21216583251953 164.0841674804688 55.49240112304688 162.095458984375 55.49240112304688 C 160.3160400390625 55.49240112304688 159.2154541015625 53.79451751708984 159.2154541015625 52.14039993286133 C 159.2154541015625 49.1798095703125 161.4176940917969 46.87204742431641 163.1114501953125 44.78263473510742 L 163.0268707275391 44.69522476196289 L 158.6222839355469 45.69663619995117 C 157.8768615722656 46.90134048461914 157.0565185546875 47.78616333007812 156.1935729980469 48.60651779174805 L 156.2534484863281 49.04875183105469 C 154.0934600830078 51.18263626098633 149.605224609375 56.18886947631836 146.4714508056641 56.18886947631836 Z M 127.7135696411133 43.38887023925781 C 126.2735748291016 44.26004791259766 124.28369140625 45.30522155761719 123.0128631591797 46.56792831420898 C 122.0814514160156 47.52569198608398 121.2767486572266 49.22357559204102 121.2767486572266 50.57275390625 C 121.2767486572266 51.83545684814453 122.0814514160156 52.22780990600586 123.1398086547852 52.22780990600586 C 124.5374526977539 52.22780990600586 125.4267501831055 51.4002799987793 126.4014511108398 50.48628234863281 C 126.1043930053711 49.78887176513672 125.8928680419922 49.22357559204102 125.8928680419922 48.48334121704102 C 125.8928680419922 46.21922302246094 127.8827514648438 43.47628021240234 127.7135696411133 43.38887023925781 Z M 188.6013336181641 42.69239807128906 L 182.5028686523438 48.5698127746582 C 184.0698089599609 48.65722274780273 185.0013427734375 50.00640106201172 185.8059234619141 51.13898849487305 C 188.3466339111328 49.52851867675781 189.0242767333984 48.78839874267578 189.1512145996094 46.26298904418945 C 189.0242767333984 45.34804534912109 188.8551025390625 44.17275238037109 188.6013336181641 42.69239807128906 Z M 179.9631042480469 39.25298690795898 C 178.9469909667969 39.25298690795898 178.2693328857422 38.42639923095703 178.2693328857422 37.38122177124023 C 178.2693328857422 35.59592819213867 180.3023986816406 34.02922439575195 181.9539184570312 34.02922439575195 C 182.7161560058594 34.02922439575195 183.3507537841797 34.59451675415039 183.3507537841797 35.37839889526367 C 183.3507537841797 37.11993026733398 181.7847442626953 39.25298690795898 179.9631042480469 39.25298690795898 Z" stroke="none" fill="#636363"/>
  </g>
</svg>
